<svg width="28" height="28" viewBox="0 0 28 28" fill="none" xmlns="http://www.w3.org/2000/svg">
<path d="M14 1.75C11.5772 1.75 9.20877 2.46845 7.19427 3.8145C5.17977 5.16054 3.60965 7.07373 2.68248 9.31213C1.75531 11.5505 1.51272 14.0136 1.98539 16.3899C2.45805 18.7661 3.62475 20.9489 5.33795 22.6621C7.05114 24.3752 9.23388 25.542 11.6101 26.0146C13.9864 26.4873 16.4495 26.2447 18.6879 25.3175C20.9263 24.3904 22.8395 22.8202 24.1855 20.8057C25.5316 18.7912 26.25 16.4228 26.25 14C26.25 10.7511 24.9594 7.63526 22.6621 5.33794C20.3647 3.04062 17.2489 1.75 14 1.75ZM8.75001 23.0912C8.88 21.7962 9.48646 20.5955 10.4517 19.7223C11.4169 18.8491 12.6721 18.3656 13.9738 18.3656C15.2754 18.3656 16.5306 18.8491 17.4958 19.7223C18.4611 20.5955 19.0675 21.7962 19.1975 23.0912C17.6113 24.0142 15.8089 24.5005 13.9738 24.5005C12.1386 24.5005 10.3362 24.0142 8.75001 23.0912ZM20.7725 21.9887C20.3995 20.4672 19.5269 19.1147 18.2943 18.1477C17.0617 17.1807 15.5404 16.6552 13.9738 16.6552C12.4071 16.6552 10.8858 17.1807 9.65317 18.1477C8.42056 19.1147 7.54796 20.4672 7.17501 21.9887C5.53711 20.5971 4.36574 18.7363 3.81907 16.6577C3.27241 14.5791 3.37678 12.3828 4.1181 10.3654C4.85943 8.34805 6.20198 6.60675 7.96447 5.37669C9.72696 4.14663 11.8245 3.48706 13.9738 3.48706C16.123 3.48706 18.2206 4.14663 19.983 5.37669C21.7455 6.60675 23.0881 8.34805 23.8294 10.3654C24.5707 12.3828 24.6751 14.5791 24.1284 16.6577C23.5818 18.7363 22.4104 20.5971 20.7725 21.9887ZM14 7C13.1347 7 12.2889 7.25659 11.5694 7.73732C10.8499 8.21805 10.2892 8.90133 9.95803 9.70076C9.6269 10.5002 9.54026 11.3799 9.70907 12.2285C9.87788 13.0772 10.2946 13.8567 10.9064 14.4686C11.5183 15.0804 12.2978 15.4971 13.1465 15.6659C13.9952 15.8347 14.8748 15.7481 15.6742 15.417C16.4737 15.0858 17.157 14.5251 17.6377 13.8056C18.1184 13.0862 18.375 12.2403 18.375 11.375C18.375 10.2147 17.9141 9.10188 17.0936 8.28141C16.2731 7.46094 15.1603 7 14 7ZM14 14C13.4808 14 12.9733 13.846 12.5416 13.5576C12.11 13.2692 11.7735 12.8592 11.5748 12.3795C11.3761 11.8999 11.3242 11.3721 11.4254 10.8629C11.5267 10.3537 11.7767 9.88596 12.1439 9.51884C12.511 9.15173 12.9787 8.90172 13.4879 8.80044C13.9971 8.69915 14.5249 8.75114 15.0045 8.94982C15.4842 9.1485 15.8942 9.48495 16.1826 9.91663C16.4711 10.3483 16.625 10.8558 16.625 11.375C16.625 12.0712 16.3484 12.7389 15.8562 13.2312C15.3639 13.7234 14.6962 14 14 14Z" fill="#4079FF"/>
</svg>
