<svg width="181" height="50" viewBox="0 0 181 50" fill="none" xmlns="http://www.w3.org/2000/svg">
<rect x="1.26013" y="0.5" width="179" height="49" rx="24.5" stroke="#E0E5E8"/>
<g clip-path="url(#clip0_1_189)">
<path fill-rule="evenodd" clip-rule="evenodd" d="M110.617 34.5355C111.406 33.8245 111.799 32.9035 111.799 31.7715C111.799 30.8515 111.53 30.0805 110.991 29.4645C110.45 28.8465 109.609 28.3075 108.464 27.8465C107.528 27.4775 106.883 27.1355 106.528 26.8195C106.12 26.4775 105.917 26.0425 105.917 25.5165C105.917 25.0415 106.095 24.6405 106.45 24.3115C106.87 23.9435 107.456 23.7585 108.206 23.7585C109.155 23.7585 110.003 23.9625 110.753 24.3705L111.286 22.6325C110.483 22.2115 109.477 22.0005 108.266 22.0005C106.908 22.0005 105.822 22.3495 105.008 23.0485C104.191 23.7465 103.783 24.6435 103.783 25.7375C103.783 27.4115 104.947 28.6845 107.277 29.5535C108.133 29.8705 108.746 30.2135 109.113 30.5825C109.482 30.9515 109.666 31.4065 109.666 31.9465C109.666 32.5525 109.443 33.0385 108.996 33.4005C108.547 33.7625 107.922 33.9445 107.119 33.9445C106 33.9445 104.973 33.6605 104.037 33.0945L103.543 34.8715C104.412 35.4245 105.56 35.7005 106.992 35.7005C108.543 35.7005 109.75 35.3125 110.617 34.5355ZM77.4051 35.5035H75.1341L73.8901 31.5945H69.5661L68.3811 35.5035H66.1701L70.4541 22.1955H73.1001L77.4051 35.5035ZM73.5151 29.9545L72.3901 26.4795C72.2711 26.1245 72.0481 25.2885 71.7191 23.9725H71.6791C71.5481 24.5385 71.3371 25.3745 71.0471 26.4795L69.9421 29.9545H73.5151ZM87.0991 34.4565C87.9811 33.5095 88.4221 32.2195 88.4221 30.5875C88.4221 29.1265 88.0441 27.9485 87.2861 27.0525C86.5301 26.1575 85.5851 25.7105 84.4531 25.7105C83.0051 25.7105 81.9261 26.2825 81.2151 27.4285H81.1751L81.0561 25.9075H79.1811C79.2331 26.9875 79.2601 28.0405 79.2601 29.0665V39.4135H81.3921V34.3585H81.4321C81.9851 35.2665 82.8931 35.7205 84.1571 35.7205C85.3281 35.7205 86.3091 35.2995 87.0991 34.4565ZM86.2501 30.6655C86.2501 29.7315 86.0401 28.9615 85.6181 28.3555C85.1571 27.7235 84.5381 27.4075 83.7621 27.4075C83.2361 27.4075 82.7581 27.5835 82.3311 27.9305C81.9031 28.2805 81.6231 28.7375 81.4921 29.3035C81.4261 29.5675 81.3931 29.7835 81.3931 29.9535V31.5535C81.3931 32.2515 81.6071 32.8405 82.0351 33.3215C82.4631 33.8025 83.0191 34.0425 83.7031 34.0425C84.5061 34.0425 85.1311 33.7325 85.5781 33.1145C86.0261 32.4955 86.2501 31.6795 86.2501 30.6655ZM98.1351 34.4565C99.0181 33.5095 99.4591 32.2195 99.4591 30.5875C99.4591 29.1265 99.0801 27.9485 98.3251 27.0525C97.5671 26.1575 96.6221 25.7105 95.4911 25.7105C94.0421 25.7105 92.9631 26.2825 92.2531 27.4285H92.2131L92.0941 25.9075H90.2191C90.2711 26.9875 90.2981 28.0405 90.2981 29.0665V39.4135H92.4301V34.3585H92.4701C93.0221 35.2665 93.9301 35.7205 95.1941 35.7205C96.3651 35.7205 97.3461 35.2995 98.1351 34.4565ZM97.2871 30.6655C97.2871 29.7315 97.0761 28.9615 96.6541 28.3555C96.1931 27.7235 95.5761 27.4075 94.7991 27.4075C94.2721 27.4075 93.7951 27.5835 93.3671 27.9305C92.9391 28.2805 92.6601 28.7375 92.5291 29.3035C92.4641 29.5675 92.4301 29.7835 92.4301 29.9535V31.5535C92.4301 32.2515 92.6441 32.8405 93.0701 33.3215C93.4981 33.8015 94.0541 34.0425 94.7401 34.0425C95.5431 34.0425 96.1681 33.7325 96.6151 33.1145C97.0631 32.4955 97.2871 31.6795 97.2871 30.6655ZM118.848 27.5075H116.498V32.1665C116.498 33.3515 116.912 33.9435 117.742 33.9435C118.123 33.9435 118.439 33.9105 118.689 33.8445L118.748 35.4635C118.328 35.6205 117.775 35.6995 117.09 35.6995C116.248 35.6995 115.59 35.4425 115.115 34.9295C114.642 34.4155 114.404 33.5535 114.404 32.3425V27.5055H113.004V25.9055H114.404V24.1485L116.498 23.5165V25.9055H118.848V27.5075ZM128.187 34.2596C129.029 33.3125 129.451 32.1015 129.451 30.6265C129.451 29.1915 129.043 28.0205 128.225 27.1135C127.37 26.1785 126.237 25.7115 124.829 25.7115C123.368 25.7115 122.206 26.1855 121.345 27.1335C120.482 28.0805 120.052 29.2985 120.052 30.7855C120.052 32.2065 120.47 33.3855 121.306 34.3195C122.142 35.2535 123.263 35.7205 124.671 35.7205C126.132 35.7205 127.304 35.2345 128.187 34.2596ZM127.239 30.6955C127.239 29.8105 127.05 29.0515 126.667 28.4185C126.22 27.6525 125.581 27.2705 124.753 27.2705C123.896 27.2705 123.245 27.6535 122.798 28.4185C122.415 29.0525 122.226 29.8235 122.226 30.7355C122.226 31.6205 122.415 32.3795 122.798 33.0115C123.259 33.7775 123.903 34.1595 124.734 34.1595C125.548 34.1595 126.187 33.7695 126.648 32.9915C127.041 32.3465 127.239 31.5795 127.239 30.6955ZM135.709 27.7235C135.945 27.7235 136.17 27.7435 136.381 27.7825V25.7495C136.223 25.7245 136.045 25.7105 135.848 25.7105C135.295 25.7105 134.782 25.8815 134.307 26.2245C133.821 26.6055 133.466 27.1135 133.241 27.7445H133.182L133.104 25.9085H131.247C131.3 26.8165 131.327 27.8235 131.327 28.9295L131.307 35.5035H133.438V30.4685C133.438 29.7055 133.616 29.0735 133.971 28.5735C134.379 28.0065 134.959 27.7235 135.709 27.7235ZM145.916 30.2515C145.916 30.6335 145.891 30.9555 145.838 31.2185H139.442C139.467 32.1665 139.776 32.8915 140.37 33.3915C140.909 33.8385 141.606 34.0625 142.462 34.0625C143.409 34.0625 144.273 33.9115 145.05 33.6085L145.384 35.0885C144.476 35.4845 143.404 35.6815 142.167 35.6815C140.679 35.6815 139.511 35.2435 138.661 34.3685C137.813 33.4935 137.388 32.3185 137.388 30.8445C137.388 29.3975 137.783 28.1925 138.574 27.2315C139.402 26.2055 140.521 25.6925 141.929 25.6925C143.312 25.6925 144.359 26.2055 145.07 27.2315C145.633 28.0465 145.916 29.0545 145.916 30.2515ZM143.469 28.0595C143.758 28.5205 143.897 29.0665 143.883 29.6985V29.6975H139.442C139.507 29.0535 139.718 28.5005 140.073 28.0395C140.506 27.4595 141.073 27.1705 141.77 27.1705C142.533 27.1705 143.1 27.4665 143.469 28.0595Z" fill="#63686B"/>
<path fill-rule="evenodd" clip-rule="evenodd" d="M94.8481 17.4326H93.8011V10.5556H94.8481V17.4326ZM71.7521 16.6666C72.4571 16.0716 72.8101 15.1856 72.8101 14.0086C72.8101 12.9606 72.4831 12.1556 71.8311 11.5926C71.2491 11.0946 70.3861 10.8456 69.2411 10.8456C68.5931 10.8456 67.9931 10.8916 67.4361 10.9816V17.4126C67.8631 17.4646 68.3731 17.4906 68.9691 17.4906C70.1711 17.4906 71.0991 17.2156 71.7521 16.6666ZM71.0991 12.2816C71.5031 12.6896 71.7051 13.2746 71.7051 14.0376C71.7051 14.8916 71.4851 15.5416 71.0491 15.9876C70.6131 16.4336 69.9941 16.6566 69.1921 16.6566C68.8491 16.6566 68.6131 16.6476 68.4841 16.6276V11.7386C68.7171 11.6926 68.9981 11.6706 69.3281 11.6706C70.1051 11.6706 70.6951 11.8746 71.0991 12.2816ZM78.6691 15.0366C78.6691 15.7616 78.4621 16.3556 78.0481 16.8216C77.6141 17.3006 77.0391 17.5396 76.3211 17.5396C75.6291 17.5396 75.0781 17.3106 74.6671 16.8506C74.2571 16.3916 74.0521 15.8126 74.0521 15.1146C74.0521 14.3846 74.2631 13.7856 74.6871 13.3206C75.1111 12.8556 75.6811 12.6226 76.3991 12.6226C77.0911 12.6226 77.6471 12.8516 78.0681 13.3106C78.4681 13.7566 78.6691 14.3326 78.6691 15.0366ZM77.3011 13.9516C77.4881 14.2626 77.5821 14.6356 77.5821 15.0706C77.5821 15.5056 77.4851 15.8816 77.2911 16.1986C77.0651 16.5816 76.7511 16.7726 76.3511 16.7726C75.9431 16.7726 75.6271 16.5846 75.4001 16.2086C75.2131 15.8976 75.1191 15.5246 75.1191 15.0896C75.1191 14.6416 75.2121 14.2626 75.4001 13.9516C75.6201 13.5756 75.9401 13.3876 76.3611 13.3876C76.7681 13.3876 77.0811 13.5756 77.3011 13.9516ZM86.5251 12.7186L86.5248 12.7196H85.4961L84.9241 14.9216C84.7821 15.4716 84.6751 15.9886 84.6041 16.4736H84.5751C84.4781 15.9756 84.3521 15.4586 84.1971 14.9216L83.5561 12.7196H82.7021L82.0331 14.9696C81.8511 15.5766 81.7221 16.0786 81.6441 16.4726H81.6251C81.5401 15.9946 81.4341 15.4896 81.3051 14.9596L80.7721 12.7186H79.6951L81.0821 17.4326H82.0531L82.7021 15.3856C82.8641 14.8876 82.9901 14.3806 83.0811 13.8626H83.1001C83.1981 14.3666 83.3241 14.8746 83.4791 15.3856L84.0901 17.4326H85.0501L86.5248 12.7196H86.5251V12.7186ZM90.9101 17.4326H91.9581V14.6086C91.9581 13.9166 91.7771 13.3956 91.4151 13.0466C91.1241 12.7616 90.7581 12.6196 90.3181 12.6196C89.9701 12.6196 89.6521 12.7086 89.3681 12.8846C89.1291 13.0356 88.9471 13.2246 88.8251 13.4536H88.7961L88.7471 12.7166H87.8261C87.8511 13.2026 87.8641 13.6516 87.8641 14.0656V17.4316H88.9121V14.6356C88.9121 14.3266 89.0101 14.0566 89.2031 13.8276C89.3981 13.5986 89.6491 13.4846 89.9601 13.4846C90.5941 13.4846 90.9101 13.9006 90.9101 14.7326V17.4326ZM100.397 16.8216C100.811 16.3556 101.018 15.7616 101.018 15.0366C101.018 14.3326 100.817 13.7566 100.417 13.3106C99.9951 12.8516 99.4401 12.6226 98.7471 12.6226C98.0301 12.6226 97.4601 12.8556 97.0361 13.3206C96.6121 13.7856 96.4011 14.3846 96.4011 15.1146C96.4011 15.8126 96.6061 16.3916 97.0161 16.8506C97.4261 17.3106 97.9771 17.5396 98.6701 17.5396C99.3871 17.5396 99.9631 17.3006 100.397 16.8216ZM99.9301 15.0706C99.9301 14.6356 99.8361 14.2626 99.6491 13.9516C99.4301 13.5756 99.1161 13.3876 98.7101 13.3876C98.2881 13.3876 97.9681 13.5756 97.7491 13.9516C97.5611 14.2626 97.4681 14.6416 97.4681 15.0896C97.4681 15.5246 97.5621 15.8976 97.7491 16.2086C97.9761 16.5846 98.2921 16.7726 98.7001 16.7726C99.1001 16.7726 99.4131 16.5816 99.6391 16.1986C99.8341 15.8816 99.9301 15.5056 99.9301 15.0706ZM105.149 17.4326H106.09C106.045 17.1546 106.022 16.7796 106.022 16.3086V14.5726C106.022 13.2726 105.404 12.6226 104.172 12.6226C103.534 12.6226 102.993 12.7586 102.555 13.0296L102.768 13.7176C103.122 13.4856 103.532 13.3686 103.997 13.3686C104.65 13.3686 104.976 13.6786 104.976 14.2996V14.3876C104.103 14.3806 103.425 14.5296 102.943 14.8336C102.46 15.1376 102.22 15.5766 102.22 16.1526C102.22 16.5336 102.343 16.8546 102.589 17.1126C102.86 17.3966 103.22 17.5396 103.665 17.5396C104.261 17.5396 104.72 17.3226 105.042 16.8896H105.071L105.149 17.4326ZM105.002 15.8126V15.0856C103.846 15.0656 103.268 15.3826 103.268 16.0356C103.268 16.2816 103.334 16.4656 103.469 16.5886C103.604 16.7116 103.776 16.7726 103.981 16.7726C104.211 16.7726 104.426 16.6996 104.622 16.5546C104.819 16.4086 104.94 16.2236 104.985 15.9966C104.996 15.9456 105.002 15.8836 105.002 15.8126ZM111.115 17.4326H112.045C112.02 17.0446 112.008 16.6216 112.008 16.1626V10.5556H110.959V13.2616H110.939C110.687 12.8346 110.244 12.6216 109.611 12.6216C109.035 12.6216 108.551 12.8416 108.156 13.2816C107.748 13.7536 107.545 14.3716 107.545 15.1346C107.545 15.8456 107.732 16.4246 108.107 16.8706C108.482 17.3166 108.955 17.5396 109.523 17.5396C110.234 17.5396 110.74 17.2516 111.037 16.6756H111.066L111.115 17.4326ZM110.959 15.4446V14.6586C110.959 14.5226 110.949 14.4126 110.93 14.3286C110.871 14.0766 110.744 13.8646 110.551 13.6936C110.356 13.5226 110.121 13.4366 109.85 13.4366C109.459 13.4366 109.153 13.5916 108.928 13.9026C108.705 14.2136 108.592 14.6106 108.592 15.0956C108.592 15.5616 108.699 15.9396 108.914 16.2306C109.141 16.5406 109.447 16.6956 109.83 16.6956C110.174 16.6956 110.449 16.5666 110.658 16.3076C110.86 16.0686 110.959 15.7806 110.959 15.4446ZM120.387 16.8216C120.801 16.3556 121.008 15.7616 121.008 15.0366C121.008 14.3326 120.807 13.7566 120.407 13.3106C119.987 12.8516 119.43 12.6226 118.739 12.6226C118.02 12.6226 117.45 12.8556 117.026 13.3206C116.602 13.7856 116.391 14.3846 116.391 15.1146C116.391 15.8126 116.596 16.3916 117.006 16.8506C117.418 17.3106 117.969 17.5396 118.66 17.5396C119.379 17.5396 119.953 17.3006 120.387 16.8216ZM119.922 15.0706C119.922 14.6356 119.828 14.2626 119.641 13.9516C119.42 13.5756 119.108 13.3876 118.7 13.3876C118.28 13.3876 117.96 13.5756 117.739 13.9516C117.551 14.2626 117.458 14.6416 117.458 15.0896C117.458 15.5246 117.552 15.8976 117.739 16.2086C117.966 16.5846 118.282 16.7726 118.69 16.7726C119.09 16.7726 119.405 16.5816 119.631 16.1986C119.824 15.8816 119.922 15.5056 119.922 15.0706ZM125.596 17.4326H126.643V14.6086C126.643 13.9166 126.463 13.3956 126.1 13.0466C125.809 12.7616 125.443 12.6196 125.004 12.6196C124.655 12.6196 124.338 12.7086 124.053 12.8846C123.815 13.0356 123.633 13.2246 123.51 13.4536H123.481L123.432 12.7166H122.512C122.537 13.2026 122.549 13.6516 122.549 14.0656V17.4316H123.598V14.6356C123.598 14.3266 123.695 14.0566 123.889 13.8276C124.083 13.5986 124.334 13.4846 124.645 13.4846C125.28 13.4846 125.596 13.9006 125.596 14.7326V17.4326ZM133.695 13.5036H132.542V15.7936C132.542 16.3756 132.747 16.6666 133.153 16.6666C133.341 16.6666 133.497 16.6506 133.62 16.6176L133.647 17.4126C133.44 17.4906 133.168 17.5296 132.833 17.5296C132.419 17.5296 132.097 17.4036 131.864 17.1516C131.63 16.8996 131.514 16.4756 131.514 15.8806V13.5036H130.825V12.7186H131.514V11.8546L132.541 11.5446V12.7176H133.695V13.5036ZM138.195 17.4326H139.244V14.6296C139.244 13.9316 139.066 13.4036 138.711 13.0486C138.426 12.7636 138.067 12.6216 137.633 12.6216C137.02 12.6216 136.547 12.8796 136.217 13.3966H136.197V10.5556H135.15V17.4316H136.197V14.5966C136.197 14.4486 136.215 14.3226 136.246 14.2196C136.428 13.7296 136.76 13.4846 137.246 13.4846C137.879 13.4846 138.195 13.9076 138.195 14.7526V17.4326ZM144.967 14.8526C144.967 15.0406 144.953 15.1986 144.928 15.3276H141.785C141.799 15.7936 141.949 16.1486 142.24 16.3946C142.506 16.6146 142.849 16.7246 143.269 16.7246C143.734 16.7246 144.158 16.6506 144.54 16.5016L144.704 17.2296C144.257 17.4236 143.731 17.5206 143.122 17.5206C142.392 17.5206 141.817 17.3056 141.401 16.8756C140.983 16.4456 140.776 15.8686 140.776 15.1446C140.776 14.4336 140.969 13.8416 141.358 13.3696C141.764 12.8656 142.313 12.6136 143.006 12.6136C143.684 12.6136 144.199 12.8656 144.547 13.3696C144.828 13.7696 144.967 14.2646 144.967 14.8526ZM143.764 13.7766C143.906 14.0026 143.975 14.2706 143.967 14.5816H141.785C141.819 14.2646 141.922 13.9936 142.096 13.7666C142.309 13.4816 142.588 13.3396 142.93 13.3396C143.305 13.3396 143.582 13.4856 143.764 13.7766Z" fill="#63686B"/>
<g clip-path="url(#clip1_1_189)">
<path d="M54.8383 35.9996H40.682C37.9681 35.9996 35.7601 33.7916 35.7601 31.0777V16.9214C35.7601 14.2075 37.9681 11.9996 40.682 11.9996H54.8383C57.5522 11.9996 59.7601 14.2075 59.7601 16.9214V31.0777C59.7601 33.7916 57.5522 35.9996 54.8383 35.9996Z" fill="#00C3FF"/>
<path d="M54.8383 11.9996H47.7601V35.9996H54.8383C57.5522 35.9996 59.7601 33.7916 59.7601 31.0777V16.9214C59.7601 14.2075 57.5522 11.9996 54.8383 11.9996Z" fill="#00AAF0"/>
<path d="M43.1499 30.4925C42.9331 30.868 42.5384 31.0781 42.1331 31.0782C41.9344 31.0782 41.7332 31.0277 41.5491 30.9214C40.9895 30.5984 40.7971 29.8802 41.1201 29.3206L41.3506 28.9214H44.0569L43.1499 30.4925Z" fill="white"/>
<path d="M40.9398 27.984C40.2936 27.984 39.7679 27.4583 39.7679 26.8121C39.7679 26.1659 40.2936 25.6402 40.9398 25.6402H43.245L46.4069 20.1636L45.55 18.6794C45.227 18.1198 45.4193 17.4017 45.9789 17.0786H45.979C46.5386 16.7555 47.2567 16.948 47.5798 17.5075L47.7601 17.8199L47.9405 17.5076C48.2637 16.9479 48.9818 16.7555 49.5413 17.0786C49.8124 17.2351 50.0063 17.4878 50.0873 17.7902C50.1683 18.0925 50.1267 18.4084 49.9702 18.6794L45.9514 25.6402H48.4863L49.8395 27.984H40.9398Z" fill="white"/>
<path d="M54.5805 27.9839H53.6284L54.4001 29.3205C54.7232 29.8801 54.5308 30.5982 53.9712 30.9213C53.7906 31.0256 53.5902 31.0789 53.3871 31.0789C53.2853 31.0789 53.1829 31.0655 53.0819 31.0384C52.7795 30.9574 52.5268 30.7634 52.3703 30.4923L48.3014 23.4448L49.6545 21.101L52.2752 25.6401H54.5805C55.2266 25.6401 55.7523 26.1658 55.7523 26.812C55.7523 27.4582 55.2266 27.9839 54.5805 27.9839Z" fill="#F2F2F2"/>
<path d="M47.7601 25.6402V27.9839H49.8395L48.4864 25.6402H47.7601Z" fill="#F2F2F2"/>
<path d="M50.0873 17.7901C50.0062 17.4877 49.8124 17.235 49.5413 17.0785C48.9818 16.7555 48.2637 16.9478 47.9405 17.5075L47.7601 17.8199V22.5073L49.9702 18.6794C50.1267 18.4083 50.1683 18.0925 50.0873 17.7901Z" fill="#F2F2F2"/>
</g>
</g>
<defs>
<clipPath id="clip0_1_189">
<rect width="111" height="30" fill="white" transform="translate(35.7601 9.99957)"/>
</clipPath>
<clipPath id="clip1_1_189">
<rect width="24" height="24" fill="white" transform="translate(35.7601 11.9996)"/>
</clipPath>
</defs>
</svg>
