<svg width="120" height="120" viewBox="0 0 120 120" fill="none" xmlns="http://www.w3.org/2000/svg">
<rect width="120" height="120" rx="20" fill="white"/>
<path d="M67 54V68H70V66C70 66 81 65 84 63V68H87V64C87 61.3478 85.9464 58.8043 84.0711 56.9289C82.1957 55.0536 79.6522 54 77 54H67Z" fill="#80A6FF"/>
<path d="M36 41.5C35.9999 41.1717 36.0645 40.8465 36.1901 40.5432C36.3157 40.2398 36.4998 39.9642 36.732 39.732C36.9642 39.4998 37.2398 39.3157 37.5432 39.1901C37.8465 39.0645 38.1717 38.9999 38.5 39H47.5C47.8283 38.9999 48.1535 39.0645 48.4568 39.1901C48.7602 39.3157 49.0358 39.4998 49.268 39.732C49.5002 39.9642 49.6843 40.2398 49.8099 40.5432C49.9355 40.8465 50.0001 41.1717 50 41.5V44H53V40C53 37.3478 51.9464 34.8043 50.0711 32.9289C48.1957 31.0536 45.6522 30 43 30C40.3478 30 37.8043 31.0536 35.9289 32.9289C34.0536 34.8043 33 37.3478 33 40V44H36V41.5Z" fill="#80A6FF"/>
<path d="M86.8575 83.9925L80 82H79.8275C79.6209 82.5848 79.238 83.0912 78.7316 83.4494C78.2252 83.8075 77.6203 83.9999 77 83.9999C76.3797 83.9999 75.7748 83.8075 75.2684 83.4494C74.762 83.0912 74.3791 82.5848 74.1725 82H74L67.1425 83.9925C66.215 84.364 65.4199 85.0047 64.8598 85.8322C64.2997 86.6596 64.0003 87.6358 64 88.635V90H90V88.635C89.9997 87.6358 89.7003 86.6596 89.1402 85.8322C88.5801 85.0047 87.785 84.364 86.8575 83.9925Z" fill="#80A6FF"/>
<path d="M52.8575 59.9925L46 58H45.8275C45.6209 58.5848 45.238 59.0912 44.7316 59.4494C44.2252 59.8075 43.6203 59.9999 43 59.9999C42.3797 59.9999 41.7748 59.8075 41.2684 59.4494C40.762 59.0912 40.3791 58.5848 40.1725 58H40L33.1425 59.9925C32.215 60.364 31.4199 61.0047 30.8598 61.8322C30.2997 62.6596 30.0003 63.6358 30 64.635V66H56V64.635C55.9997 63.6358 55.7003 62.6596 55.1402 61.8322C54.5801 61.0047 53.785 60.364 52.8575 59.9925Z" fill="#80A6FF"/>
<path d="M70 47C73.866 47 77 43.866 77 40C77 36.134 73.866 33 70 33C66.134 33 63 36.134 63 40C63 43.866 66.134 47 70 47Z" fill="#80A6FF"/>
<path d="M75 69C75 68.7348 74.8946 68.4804 74.7071 68.2929C74.5196 68.1054 74.2652 68 74 68C73.7348 68 73.4804 68.1054 73.2929 68.2929C73.1054 68.4804 73 68.7348 73 69V70C73 70.2652 73.1054 70.5196 73.2929 70.7071C73.4804 70.8946 73.7348 71 74 71C74.2652 71 74.5196 70.8946 74.7071 70.7071C74.8946 70.5196 75 70.2652 75 70V69Z" fill="#263357"/>
<path d="M80 71C80.2652 71 80.5196 70.8946 80.7071 70.7071C80.8946 70.5196 81 70.2652 81 70V69C81 68.7348 80.8946 68.4804 80.7071 68.2929C80.5196 68.1054 80.2652 68 80 68C79.7348 68 79.4804 68.1054 79.2929 68.2929C79.1054 68.4804 79 68.7348 79 69V70C79 70.2652 79.1054 70.5196 79.2929 70.7071C79.4804 70.8946 79.7348 71 80 71Z" fill="#263357"/>
<path d="M87.2288 83.0638C87.1975 83.0525 87.1675 83.0413 87.1363 83.0325L80.9913 81.2463C80.9963 81.165 81 81.0825 81 81V79.6763C82.0256 79.3391 82.937 78.723 83.6322 77.8971C84.3274 77.0712 84.779 76.068 84.9363 75H85.5C86.428 74.999 87.3176 74.6299 87.9738 73.9737C88.6299 73.3176 88.999 72.4279 89 71.5V70.5C89.0003 70.034 88.9072 69.5727 88.7262 69.1433C88.5452 68.7139 88.28 68.3252 87.9463 68H88V64C87.9967 61.0836 86.8367 58.2877 84.7746 56.2255C82.7124 54.1633 79.9164 53.0033 77 53H67C66.7348 53 66.4805 53.1054 66.2929 53.2929C66.1054 53.4804 66 53.7348 66 54V68H66.0538C65.72 68.3252 65.4548 68.7139 65.2738 69.1433C65.0929 69.5727 64.9998 70.034 65 70.5V71.5C65.0011 72.4279 65.3701 73.3176 66.0263 73.9737C66.6824 74.6299 67.5721 74.999 68.5 75H69.0638C69.2211 76.068 69.6726 77.0712 70.3678 77.8971C71.063 78.723 71.9745 79.3391 73 79.6763V81C73 81.0825 73.0038 81.165 73.0088 81.2463L66.8638 83.0325C66.8325 83.0413 66.8025 83.0525 66.7713 83.0638C65.6557 83.506 64.6993 84.2741 64.0266 85.2679C63.3539 86.2616 62.9962 87.435 63 88.635V90C63 90.2652 63.1054 90.5196 63.2929 90.7071C63.4805 90.8946 63.7348 91 64 91H90C90.2652 91 90.5196 90.8946 90.7071 90.7071C90.8947 90.5196 91 90.2652 91 90V88.635C91.0039 87.435 90.6461 86.2616 89.9734 85.2679C89.3008 84.2741 88.3443 83.506 87.2288 83.0638ZM87 70.5V71.5C86.9997 71.8977 86.8416 72.2791 86.5603 72.5603C86.2791 72.8415 85.8978 72.9997 85.5 73H85V69H85.5C85.8978 69.0003 86.2791 69.1585 86.5603 69.4397C86.8416 69.7209 86.9997 70.1023 87 70.5ZM69 73H68.5C68.1023 72.9997 67.721 72.8415 67.4397 72.5603C67.1585 72.2791 67.0004 71.8977 67 71.5V70.5C67.0004 70.1023 67.1585 69.7209 67.4397 69.4397C67.721 69.1585 68.1023 69.0003 68.5 69H69V73ZM69.91 65.0037C69.6615 65.0265 69.4303 65.1412 69.262 65.3255C69.0936 65.5098 69.0002 65.7504 69 66V67H68.5C68.3327 67 68.1656 67.0121 68 67.0363V55H77C79.3861 55.0027 81.6737 55.9518 83.361 57.6391C85.0482 59.3263 85.9973 61.6139 86 64V67.0363C85.8345 67.0121 85.6674 67 85.5 67H85V63C84.9998 62.8191 84.9505 62.6416 84.8574 62.4864C84.7643 62.3313 84.6309 62.2042 84.4714 62.1189C84.3119 62.0335 84.1322 61.9929 83.9515 62.0014C83.7708 62.01 83.5957 62.0674 83.445 62.1675C81.1588 63.6925 72.8988 64.7325 69.91 65.0037ZM71 74.125V66.9062C73.4138 66.655 79.5475 65.9137 83 64.5938V74.125C83 76.2975 81.2425 78 79 78H75C72.7575 78 71 76.2975 71 74.125ZM79 80V81C79 81.5304 78.7893 82.0391 78.4142 82.4142C78.0392 82.7893 77.5305 83 77 83C76.4696 83 75.9609 82.7893 75.5858 82.4142C75.2107 82.0391 75 81.5304 75 81V80H79ZM89 89H65V88.635C64.9975 87.8429 65.2313 87.0681 65.6715 86.4097C66.1117 85.7512 66.7384 85.2391 67.4713 84.9388L73.6288 83.1488C73.9896 83.7161 74.4877 84.1831 75.077 84.5067C75.6663 84.8303 76.3277 85 77 85C77.6723 85 78.3338 84.8303 78.9231 84.5067C79.5124 84.1831 80.0105 83.7161 80.3713 83.1488L86.5288 84.9388C87.2617 85.2391 87.8883 85.7512 88.3286 86.4097C88.7688 87.0681 89.0026 87.8429 89 88.635V89Z" fill="#263357"/>
<path d="M76 76H78C78.2652 76 78.5196 75.8946 78.7071 75.7071C78.8946 75.5196 79 75.2652 79 75C79 74.7348 78.8946 74.4804 78.7071 74.2929C78.5196 74.1054 78.2652 74 78 74H76C75.7348 74 75.4804 74.1054 75.2929 74.2929C75.1054 74.4804 75 74.7348 75 75C75 75.2652 75.1054 75.5196 75.2929 75.7071C75.4804 75.8946 75.7348 76 76 76Z" fill="#263357"/>
<path d="M41 46V45C41 44.7348 40.8946 44.4804 40.7071 44.2929C40.5196 44.1054 40.2652 44 40 44C39.7348 44 39.4804 44.1054 39.2929 44.2929C39.1054 44.4804 39 44.7348 39 45V46C39 46.2652 39.1054 46.5196 39.2929 46.7071C39.4804 46.8946 39.7348 47 40 47C40.2652 47 40.5196 46.8946 40.7071 46.7071C40.8946 46.5196 41 46.2652 41 46Z" fill="#263357"/>
<path d="M46 47C46.2652 47 46.5196 46.8946 46.7071 46.7071C46.8946 46.5196 47 46.2652 47 46V45C47 44.7348 46.8946 44.4804 46.7071 44.2929C46.5196 44.1054 46.2652 44 46 44C45.7348 44 45.4804 44.1054 45.2929 44.2929C45.1054 44.4804 45 44.7348 45 45V46C45 46.2652 45.1054 46.5196 45.2929 46.7071C45.4804 46.8946 45.7348 47 46 47Z" fill="#263357"/>
<path d="M53.2288 59.0637C53.1975 59.0525 53.1675 59.0413 53.1363 59.0325L46.9913 57.2463C46.9963 57.165 47 57.0825 47 57V55.6763C48.0256 55.3391 48.937 54.723 49.6322 53.8971C50.3274 53.0712 50.779 52.068 50.9363 51H51.5C52.428 50.999 53.3176 50.6299 53.9738 49.9737C54.6299 49.3176 54.999 48.4279 55 47.5V46.5C55.0008 45.5837 54.6406 44.704 53.9975 44.0513C53.9988 44.0338 54 44.0175 54 44V40C54 37.0826 52.8411 34.2847 50.7782 32.2218C48.7153 30.1589 45.9174 29 43 29C40.0826 29 37.2848 30.1589 35.2219 32.2218C33.159 34.2847 32 37.0826 32 40V44C32 44.0175 32.0013 44.0338 32.0025 44.0513C31.3594 44.704 30.9993 45.5837 31 46.5V47.5C31.0011 48.4279 31.3701 49.3176 32.0263 49.9737C32.6824 50.6299 33.5721 50.999 34.5 51H35.0638C35.2211 52.068 35.6726 53.0712 36.3678 53.8971C37.063 54.723 37.9745 55.3391 39 55.6763V57C39 57.0825 39.0038 57.165 39.0088 57.2463L32.8638 59.0325C32.8325 59.0413 32.8025 59.0525 32.7713 59.0637C31.6557 59.506 30.6993 60.2741 30.0266 61.2679C29.3539 62.2616 28.9962 63.435 29 64.635V66C29 66.2652 29.1054 66.5196 29.2929 66.7071C29.4805 66.8946 29.7348 67 30 67H56C56.2652 67 56.5196 66.8946 56.7071 66.7071C56.8947 66.5196 57 66.2652 57 66V64.635C57.0039 63.435 56.6461 62.2616 55.9734 61.2679C55.3008 60.2741 54.3443 59.506 53.2288 59.0637ZM53 46.5V47.5C52.9997 47.8977 52.8416 48.2791 52.5603 48.5603C52.2791 48.8415 51.8978 48.9997 51.5 49H51V45H51.5C51.8978 45.0003 52.2791 45.1585 52.5603 45.4397C52.8416 45.7209 52.9997 46.1023 53 46.5ZM35 49H34.5C34.1023 48.9997 33.721 48.8415 33.4397 48.5603C33.1585 48.2791 33.0004 47.8977 33 47.5V46.5C33.0004 46.1023 33.1585 45.7209 33.4397 45.4397C33.721 45.1585 34.1023 45.0003 34.5 45H35V49ZM35 41.5V43H34V40C34 37.6131 34.9482 35.3239 36.6361 33.636C38.3239 31.9482 40.6131 31 43 31C45.387 31 47.6762 31.9482 49.364 33.636C51.0518 35.3239 52 37.6131 52 40V43H51V41.5C50.999 40.5721 50.6299 39.6824 49.9738 39.0263C49.3176 38.3701 48.428 38.001 47.5 38H38.5C37.5721 38.001 36.6824 38.3701 36.0263 39.0263C35.3701 39.6824 35.0011 40.5721 35 41.5ZM37 50.125V41.5C37.0004 41.1023 37.1585 40.7209 37.4397 40.4397C37.721 40.1585 38.1023 40.0003 38.5 40H47.5C47.8978 40.0003 48.2791 40.1585 48.5603 40.4397C48.8416 40.7209 48.9997 41.1023 49 41.5V50.125C49 52.2975 47.2425 54 45 54H41C38.7575 54 37 52.2975 37 50.125ZM45 56V57C45 57.5304 44.7893 58.0391 44.4142 58.4142C44.0392 58.7893 43.5305 59 43 59C42.4696 59 41.9609 58.7893 41.5858 58.4142C41.2107 58.0391 41 57.5304 41 57V56H45ZM55 65H31V64.635C30.9975 63.8429 31.2313 63.0681 31.6715 62.4097C32.1117 61.7512 32.7384 61.2391 33.4713 60.9388L39.6288 59.1488C39.9896 59.7161 40.4877 60.1831 41.077 60.5067C41.6663 60.8303 42.3277 61 43 61C43.6723 61 44.3338 60.8303 44.9231 60.5067C45.5124 60.1831 46.0105 59.7161 46.3713 59.1488L52.5288 60.9388C53.2617 61.2391 53.8883 61.7512 54.3286 62.4097C54.7688 63.0681 55.0026 63.8429 55 64.635V65Z" fill="#263357"/>
<path d="M41.7072 50.2956C42.6495 51.2382 43.3505 51.2382 44.2929 50.2956C44.4804 50.108 44.7348 50.0027 45 50.0027C45.2652 50.0027 45.5196 50.108 45.7072 50.2956C45.8947 50.4831 46.0001 50.7375 46.0001 51.0027C46.0001 51.2679 45.8947 51.5223 45.7072 51.7098C43.9868 53.4301 42.0133 53.4301 40.2929 51.7098C40.1054 51.5223 40 51.2679 40 51.0027C40 50.7375 40.1054 50.4831 40.2929 50.2956C40.4804 50.108 40.7348 50.0027 41 50.0027C41.2652 50.0027 41.5196 50.108 41.7072 50.2956Z" fill="#263357"/>
<path d="M63 69C63 68.7348 62.8946 68.4804 62.7071 68.2929C62.5196 68.1054 62.2652 68 62 68H32C31.7348 68 31.4804 68.1054 31.2929 68.2929C31.1054 68.4804 31 68.7348 31 69V83C31 83.2652 31.1054 83.5196 31.2929 83.7071C31.4804 83.8946 31.7348 84 32 84H54.5859L58.2929 87.7071C58.4327 87.847 58.6109 87.9422 58.8049 87.9808C58.9989 88.0194 59.2 87.9996 59.3827 87.9239C59.5654 87.8482 59.7216 87.72 59.8315 87.5556C59.9414 87.3911 60 87.1978 60 87V84H62C62.2652 84 62.5196 83.8946 62.7071 83.7071C62.8946 83.5196 63 83.2652 63 83V69ZM61 82H59C58.7348 82 58.4804 82.1053 58.2929 82.2929C58.1054 82.4804 58 82.7348 58 83V84.5859L55.7071 82.2929C55.6143 82.2 55.504 82.1263 55.3827 82.0761C55.2614 82.0258 55.1313 82 55 82H33V70H61V82Z" fill="#263357"/>
<path d="M37 74H57C57.2652 74 57.5196 73.8946 57.7071 73.7071C57.8946 73.5196 58 73.2652 58 73C58 72.7348 57.8946 72.4804 57.7071 72.2929C57.5196 72.1054 57.2652 72 57 72H37C36.7348 72 36.4804 72.1054 36.2929 72.2929C36.1054 72.4804 36 72.7348 36 73C36 73.2652 36.1054 73.5196 36.2929 73.7071C36.4804 73.8946 36.7348 74 37 74Z" fill="#263357"/>
<path d="M37 77H57C57.2652 77 57.5196 76.8946 57.7071 76.7071C57.8946 76.5196 58 76.2652 58 76C58 75.7348 57.8946 75.4804 57.7071 75.2929C57.5196 75.1054 57.2652 75 57 75H37C36.7348 75 36.4804 75.1054 36.2929 75.2929C36.1054 75.4804 36 75.7348 36 76C36 76.2652 36.1054 76.5196 36.2929 76.7071C36.4804 76.8946 36.7348 77 37 77Z" fill="#263357"/>
<path d="M57 78H47C46.7348 78 46.4804 78.1054 46.2929 78.2929C46.1054 78.4804 46 78.7348 46 79C46 79.2652 46.1054 79.5196 46.2929 79.7071C46.4804 79.8946 46.7348 80 47 80H57C57.2652 80 57.5196 79.8946 57.7071 79.7071C57.8946 79.5196 58 79.2652 58 79C58 78.7348 57.8946 78.4804 57.7071 78.2929C57.5196 78.1054 57.2652 78 57 78Z" fill="#263357"/>
<path d="M67 39H68C68.2652 39 68.5196 38.8946 68.7071 38.7071C68.8946 38.5196 69 38.2652 69 38C69 37.7348 68.8946 37.4804 68.7071 37.2929C68.5196 37.1054 68.2652 37 68 37H67C66.7348 37 66.4804 37.1054 66.2929 37.2929C66.1054 37.4804 66 37.7348 66 38C66 38.2652 66.1054 38.5196 66.2929 38.7071C66.4804 38.8946 66.7348 39 67 39Z" fill="#263357"/>
<path d="M72 39H73C73.2652 39 73.5196 38.8946 73.7071 38.7071C73.8946 38.5196 74 38.2652 74 38C74 37.7348 73.8946 37.4804 73.7071 37.2929C73.5196 37.1054 73.2652 37 73 37H72C71.7348 37 71.4804 37.1054 71.2929 37.2929C71.1054 37.4804 71 37.7348 71 38C71 38.2652 71.1054 38.5196 71.2929 38.7071C71.4804 38.8946 71.7348 39 72 39Z" fill="#263357"/>
<path d="M72.7071 41.2956C72.6142 41.2027 72.504 41.129 72.3827 41.0788C72.2613 41.0285 72.1313 41.0027 72 41.0027C71.8686 41.0027 71.7386 41.0285 71.6173 41.0788C71.4959 41.129 71.3857 41.2027 71.2928 41.2956C70.3505 42.2382 69.6495 42.2382 68.7071 41.2956C68.5195 41.108 68.2652 41.0027 68 41.0027C67.7347 41.0027 67.4804 41.108 67.2928 41.2956C67.1053 41.4831 66.9999 41.7375 66.9999 42.0027C66.9999 42.2679 67.1053 42.5223 67.2928 42.7098C69.0132 44.4301 70.9867 44.4301 72.7071 42.7098C72.8 42.617 72.8736 42.5067 72.9239 42.3854C72.9741 42.2641 73 42.134 73 42.0027C73 41.8714 72.9741 41.7413 72.9239 41.62C72.8736 41.4987 72.8 41.3884 72.7071 41.2956Z" fill="#263357"/>
<path d="M82 29H58C57.7348 29 57.4804 29.1054 57.2929 29.2929C57.1054 29.4804 57 29.7348 57 30V50C57 50.2652 57.1054 50.5196 57.2929 50.7071C57.4804 50.8946 57.7348 51 58 51H59V54C58.9998 54.1979 59.0584 54.3914 59.1683 54.556C59.2782 54.7206 59.4344 54.8489 59.6172 54.9246C59.8 55.0004 60.0012 55.0202 60.1953 54.9815C60.3894 54.9429 60.5676 54.8475 60.7075 54.7075L64.4137 51H82C82.2652 51 82.5196 50.8946 82.7071 50.7071C82.8946 50.5196 83 50.2652 83 50V30C83 29.7348 82.8946 29.4804 82.7071 29.2929C82.5196 29.1054 82.2652 29 82 29ZM81 49H64C63.7347 48.9999 63.4803 49.1051 63.2925 49.2925L61 51.5863V50C61 49.7348 60.8946 49.4804 60.7071 49.2929C60.5196 49.1054 60.2652 49 60 49H59V31H81V49Z" fill="#263357"/>
<path d="M70 32C68.4178 32 66.871 32.4692 65.5554 33.3482C64.2399 34.2273 63.2145 35.4767 62.609 36.9385C62.0035 38.4003 61.845 40.0089 62.1537 41.5607C62.4624 43.1126 63.2243 44.538 64.3432 45.6569C65.462 46.7757 66.8874 47.5376 68.4393 47.8463C69.9911 48.155 71.5997 47.9965 73.0615 47.391C74.5233 46.7855 75.7727 45.7602 76.6518 44.4446C77.5308 43.129 78 41.5823 78 40C77.9976 37.879 77.154 35.8456 75.6542 34.3458C74.1545 32.846 72.121 32.0024 70 32ZM70 46C68.8133 46 67.6533 45.6481 66.6666 44.9888C65.6799 44.3295 64.9109 43.3925 64.4567 42.2961C64.0026 41.1997 63.8838 39.9933 64.1153 38.8295C64.3468 37.6656 64.9182 36.5965 65.7574 35.7574C66.5965 34.9182 67.6656 34.3468 68.8295 34.1153C69.9933 33.8838 71.1997 34.0026 72.2961 34.4567C73.3925 34.9108 74.3295 35.6799 74.9888 36.6666C75.6481 37.6533 76 38.8133 76 40C75.9983 41.5908 75.3656 43.1159 74.2408 44.2408C73.1159 45.3656 71.5908 45.9983 70 46Z" fill="#263357"/>
</svg>
