<svg width="181" height="50" viewBox="0 0 181 50" fill="none" xmlns="http://www.w3.org/2000/svg">
<rect x="1.26013" y="0.5" width="179" height="49" rx="24.5" stroke="#E0E5E8"/>
<g clip-path="url(#clip0_1_151)">
<path fill-rule="evenodd" clip-rule="evenodd" d="M34.1908 11.3681C33.9173 11.6581 33.7601 12.1044 33.7601 12.6843V33.3119C33.7601 33.8918 33.9173 34.3381 34.2011 34.618L34.2752 34.6798L45.9923 23.1216V22.8619L34.265 11.3063L34.1908 11.3681Z" fill="url(#paint0_linear_1_151)"/>
<path fill-rule="evenodd" clip-rule="evenodd" d="M49.8904 26.9894L45.9821 23.1329V22.8631L49.8917 19.0067L49.976 19.0583L54.6 21.6503C55.9241 22.3866 55.9241 23.5994 54.6 24.3457L49.976 26.9377C49.9747 26.9377 49.8904 26.9894 49.8904 26.9894Z" fill="url(#paint1_linear_1_151)"/>
<path fill-rule="evenodd" clip-rule="evenodd" d="M49.9747 26.9377L45.9821 22.998L34.1908 34.6293C34.6215 35.0857 35.3462 35.1373 36.1565 34.6911L49.9747 26.9377Z" fill="url(#paint2_linear_1_151)"/>
<path fill-rule="evenodd" clip-rule="evenodd" d="M49.9747 19.0596L36.1565 11.3163C35.3475 10.8599 34.6215 10.9217 34.1908 11.3781L45.9808 22.998L49.9747 19.0596Z" fill="url(#paint3_linear_1_151)"/>
<path opacity="0.2" fill-rule="evenodd" clip-rule="evenodd" d="M49.8904 26.8547L36.1667 34.5463C35.3999 34.9812 34.7161 34.951 34.2752 34.5564L34.201 34.6295L34.2752 34.6913C34.7161 35.0846 35.3999 35.1161 36.1667 34.6812L49.985 26.9379L49.8904 26.8547Z" fill="black"/>
<path opacity="0.12" fill-rule="evenodd" clip-rule="evenodd" d="M54.5987 24.2108L49.8802 26.8545L49.9645 26.9377L54.5885 24.3457C55.2506 23.9726 55.5765 23.4859 55.5765 22.998C55.5343 23.4443 55.1982 23.8692 54.5987 24.2108Z" fill="black"/>
<path opacity="0.25" fill-rule="evenodd" clip-rule="evenodd" d="M36.1565 11.4518L54.5987 21.787C55.1981 22.1186 55.5343 22.5535 55.5867 22.9998C55.5867 22.5132 55.2608 22.0253 54.5987 21.6521L36.1565 11.3169C34.8324 10.5705 33.7601 11.1921 33.7601 12.6847V12.8196C33.7601 11.327 34.8324 10.7155 36.1565 11.4518Z" fill="white"/>
<path fill-rule="evenodd" clip-rule="evenodd" d="M126.068 34.8464H127.921V22.4255H126.068V34.8464ZM142.768 26.8997L140.642 32.285H140.579L138.373 26.8997H136.376L139.685 34.4261L137.798 38.6131H139.731L144.829 26.8997H142.768ZM132.252 33.4356C131.646 33.4356 130.799 33.1315 130.799 32.3804C130.799 31.4225 131.854 31.0539 132.765 31.0539C133.579 31.0539 133.963 31.2308 134.458 31.4692C134.314 32.6208 133.323 33.4356 132.252 33.4356ZM132.477 26.6275C131.135 26.6275 129.745 27.2196 129.169 28.5292L130.815 29.2168C131.166 28.5292 131.821 28.3056 132.509 28.3056C133.468 28.3056 134.442 28.8809 134.458 29.9033V30.0315C134.122 29.8397 133.403 29.5526 132.525 29.5526C130.75 29.5526 128.945 30.5273 128.945 32.3485C128.945 34.0108 130.399 35.0819 132.029 35.0819C133.275 35.0819 133.963 34.5225 134.394 33.8668H134.458V34.8256H136.249V30.0633C136.249 27.8585 134.601 26.6275 132.477 26.6275ZM121.019 28.4121H118.382V24.1545H121.019C122.405 24.1545 123.192 25.3011 123.192 26.2828C123.192 27.2456 122.405 28.4121 121.019 28.4121ZM120.971 22.4247H116.529V34.8465H118.382V30.1409H120.971C123.026 30.1409 125.046 28.6525 125.046 26.2828C125.046 23.9131 123.026 22.4247 120.971 22.4247ZM96.7464 33.4376C95.4656 33.4376 94.3935 32.3655 94.3935 30.893C94.3935 29.4036 95.4656 28.3156 96.7464 28.3156C98.0102 28.3156 99.0028 29.4036 99.0028 30.893C99.0028 32.3655 98.0102 33.4376 96.7464 33.4376ZM98.8745 27.5953H98.8109C98.3946 27.0995 97.5937 26.6504 96.5862 26.6504C94.4729 26.6504 92.5354 28.5074 92.5354 30.893C92.5354 33.2617 94.4729 35.1028 96.5862 35.1028C97.5937 35.1028 98.3946 34.6547 98.8109 34.142H98.8745V34.7501C98.8745 36.3677 98.01 37.2311 96.618 37.2311C95.4813 37.2311 94.7769 36.4154 94.4888 35.7268L92.8722 36.3995C93.3362 37.5192 94.5682 38.8964 96.618 38.8964C98.795 38.8964 100.636 37.6156 100.636 34.4938V26.9067H98.8745V27.5953ZM101.917 34.8464H103.773V22.4255H101.917V34.8464ZM106.51 30.749C106.463 29.1155 107.775 28.2839 108.719 28.2839C109.456 28.2839 110.08 28.6525 110.289 29.1801L106.51 30.749ZM112.273 29.34C111.92 28.3961 110.848 26.6504 108.655 26.6504C106.479 26.6504 104.669 28.3633 104.669 30.8771C104.669 33.2458 106.463 35.1028 108.863 35.1028C110.8 35.1028 111.92 33.9185 112.385 33.2299L110.945 32.2691C110.464 32.9736 109.808 33.4376 108.863 33.4376C107.919 33.4376 107.247 33.0054 106.815 32.1568L112.465 29.8199L112.273 29.34ZM67.2559 27.948V29.7405H71.5452C71.418 30.749 71.0812 31.4852 70.5695 31.9969C69.9445 32.6219 68.9678 33.3104 67.2559 33.3104C64.6139 33.3104 62.5492 31.1812 62.5492 28.5402C62.5492 25.8993 64.6139 23.769 67.2559 23.769C68.6807 23.769 69.7209 24.3294 70.489 25.0507L71.7538 23.7859C70.6808 22.7615 69.2569 21.9766 67.2559 21.9766C63.6372 21.9766 60.5958 24.9226 60.5958 28.5402C60.5958 32.1569 63.6372 35.1029 67.2559 35.1029C69.2083 35.1029 70.6808 34.462 71.8333 33.2618C73.0177 32.0774 73.3863 30.4121 73.3863 29.0678C73.3863 28.6525 73.3545 28.268 73.2899 27.948H67.2559ZM78.2625 33.4376C76.9827 33.4376 75.8779 32.3814 75.8779 30.8771C75.8779 29.3559 76.9827 28.3156 78.2625 28.3156C79.5432 28.3156 80.6481 29.3559 80.6481 30.8771C80.6481 32.3814 79.5432 33.4376 78.2625 33.4376ZM78.2629 26.6504C75.926 26.6504 74.0213 28.4279 74.0213 30.8771C74.0213 33.3104 75.926 35.1028 78.2629 35.1028C80.6008 35.1028 82.5055 33.3104 82.5055 30.8771C82.5055 28.4279 80.6008 26.6504 78.2629 26.6504ZM87.5166 33.4376C86.2359 33.4376 85.131 32.3814 85.131 30.8771C85.131 29.3559 86.2359 28.3156 87.5166 28.3156C88.7973 28.3156 89.9012 29.3559 89.9012 30.8771C89.9012 32.3814 88.7973 33.4376 87.5166 33.4376ZM87.5172 26.6504C85.1803 26.6504 83.2755 28.4279 83.2755 30.8771C83.2755 33.3104 85.1803 35.1028 87.5172 35.1028C89.8541 35.1028 91.7588 33.3104 91.7588 30.8771C91.7588 28.4279 89.8541 26.6504 87.5172 26.6504Z" fill="#63686B"/>
<path fill-rule="evenodd" clip-rule="evenodd" d="M90.769 18.0882C91.6404 18.0882 92.3687 17.7871 92.9549 17.184C93.5401 16.5819 93.8332 15.8456 93.8332 14.9743C93.8332 14.1079 93.5391 13.3726 92.9509 12.7675C92.3617 12.1624 91.6354 11.8604 90.769 11.8604C89.8976 11.8604 89.1693 12.1614 88.5841 12.7635C87.9979 13.3656 87.7058 14.1029 87.7058 14.9743C87.7058 15.8456 87.9979 16.5819 88.5841 17.184C89.1693 17.7871 89.8976 18.0882 90.769 18.0882ZM66.1922 17.2062C66.686 16.7113 66.9324 16.0486 66.9324 15.216C66.9324 15.0709 66.9185 14.9219 66.8907 14.7659H64.0023V15.4823H66.1663C66.1226 15.9989 65.9557 16.4004 65.6675 16.6895C65.2224 17.1336 64.668 17.3552 64.0023 17.3552C63.3743 17.3552 62.8318 17.1356 62.3738 16.6935C61.9158 16.2523 61.6872 15.679 61.6872 14.9746C61.6872 14.2691 61.9158 13.6968 62.3738 13.2547C62.8318 12.8135 63.3743 12.5929 64.0023 12.5929C64.6958 12.5929 65.2393 12.8294 65.6338 13.3004L66.1584 12.7757C65.9249 12.4985 65.6139 12.277 65.2254 12.11C64.8379 11.9441 64.4285 11.8606 64.0023 11.8606C63.1418 11.8606 62.4096 12.1587 61.8084 12.7549C61.2053 13.352 60.9053 14.0913 60.9053 14.9746C60.9053 15.8569 61.2053 16.5971 61.8084 17.1932C62.4096 17.7904 63.1418 18.0885 64.0023 18.0885C64.9005 18.0885 65.6308 17.7944 66.1922 17.2062ZM68.7976 12.7259H71.5121V11.9937H68.0316V17.9552H71.5121V17.2219H68.7976V15.3321H71.2449V14.6157H68.7976V12.7259ZM74.7422 17.9547H73.9761V12.7255H72.3109V11.9932H76.4074V12.7255H74.7422V17.9547ZM80.1376 17.955H79.3715V11.9934H80.1376V17.955ZM83.5353 17.9547H82.7692V12.7255H81.104V11.9932H85.2005V12.7255H83.5353V17.9547ZM89.1496 16.6854C89.5907 17.1325 90.1302 17.3551 90.7691 17.3551C91.407 17.3551 91.9475 17.1325 92.3887 16.6854C92.8298 16.2383 93.0514 15.668 93.0514 14.9744C93.0514 14.2809 92.8298 13.7096 92.3887 13.2635C91.9475 12.8164 91.407 12.5928 90.7691 12.5928C90.1302 12.5928 89.5907 12.8164 89.1496 13.2635C88.7094 13.7096 88.4878 14.2809 88.4878 14.9744C88.4878 15.668 88.7094 16.2383 89.1496 16.6854ZM94.9083 11.9932V17.9547H95.6744V14.2417L95.6406 13.0921H95.6744L98.7048 17.9547H99.5047V11.9932H98.7376V15.4817L98.7714 16.6303H98.7376L95.8403 11.9932H94.9083Z" fill="#63686B"/>
</g>
<defs>
<linearGradient id="paint0_linear_1_151" x1="44.9334" y1="12.469" x2="26.2177" y2="17.522" gradientUnits="userSpaceOnUse">
<stop stop-color="#00A0FF"/>
<stop offset="0.007" stop-color="#00A1FF"/>
<stop offset="0.26" stop-color="#00BEFF"/>
<stop offset="0.512" stop-color="#00D2FF"/>
<stop offset="0.76" stop-color="#00DFFF"/>
<stop offset="1" stop-color="#00E3FF"/>
</linearGradient>
<linearGradient id="paint1_linear_1_151" x1="56.3229" y1="22.9948" x2="33.4382" y2="22.9948" gradientUnits="userSpaceOnUse">
<stop stop-color="#FFE000"/>
<stop offset="0.409" stop-color="#FFBD00"/>
<stop offset="0.775" stop-color="#FFA500"/>
<stop offset="1" stop-color="#FF9C00"/>
</linearGradient>
<linearGradient id="paint2_linear_1_151" x1="47.8056" y1="25.1376" x2="33.0259" y2="50.3264" gradientUnits="userSpaceOnUse">
<stop stop-color="#FF3A44"/>
<stop offset="1" stop-color="#C31162"/>
</linearGradient>
<linearGradient id="paint3_linear_1_151" x1="31.22" y1="4.49828" x2="37.815" y2="15.7396" gradientUnits="userSpaceOnUse">
<stop stop-color="#32A071"/>
<stop offset="0.069" stop-color="#2DA771"/>
<stop offset="0.476" stop-color="#15CF74"/>
<stop offset="0.801" stop-color="#06E775"/>
<stop offset="1" stop-color="#00F076"/>
</linearGradient>
<clipPath id="clip0_1_151">
<rect width="115" height="28" fill="white" transform="translate(33.7601 11)"/>
</clipPath>
</defs>
</svg>
