<svg width="16" height="20" viewBox="0 0 16 20" fill="none" xmlns="http://www.w3.org/2000/svg">
<path fill-rule="evenodd" clip-rule="evenodd" d="M6.77876 2.944V0.958333C6.77876 0.429333 7.20809 0 7.73709 0C8.26513 0 8.69542 0.429333 8.69542 0.958333V2.944C10.1195 3.14909 11.4506 3.81033 12.4799 4.83958C13.7382 6.09787 14.4454 7.80466 14.4454 9.58333V13.1905L15.2207 14.7411C15.5916 15.4838 15.5523 16.3655 15.1153 17.0718C14.6793 17.778 13.9078 18.2083 13.0779 18.2083H8.69542C8.69542 18.7373 8.26513 19.1667 7.73709 19.1667C7.20809 19.1667 6.77876 18.7373 6.77876 18.2083H2.3963C1.56542 18.2083 0.793982 17.778 0.35794 17.0718C-0.0790596 16.3655 -0.11836 15.4838 0.253474 14.7411L1.02876 13.1905V9.58333C1.02876 7.80466 1.73507 6.09787 2.99336 4.83958C4.02357 3.81033 5.35371 3.14909 6.77876 2.944ZM7.73709 4.79166C6.46538 4.79166 5.24736 5.29671 4.34844 6.19563C3.44953 7.09358 2.94542 8.31258 2.94542 9.58333V13.4167C2.94542 13.5652 2.90998 13.7118 2.84385 13.845C2.84385 13.845 2.41738 14.698 1.96697 15.5978C1.89318 15.7464 1.90085 15.9237 1.98805 16.0645C2.07526 16.2054 2.22955 16.2917 2.3963 16.2917H13.0779C13.2437 16.2917 13.398 16.2054 13.4852 16.0645C13.5724 15.9237 13.5801 15.7464 13.5063 15.5978C13.0559 14.698 12.6294 13.845 12.6294 13.845C12.5633 13.7118 12.5288 13.5652 12.5288 13.4167V9.58333C12.5288 8.31258 12.0237 7.09358 11.1248 6.19563C10.2259 5.29671 9.00784 4.79166 7.73709 4.79166Z" fill="#4079FF"/>
</svg>
