<svg width="36" height="36" viewBox="0 0 36 36" fill="none" xmlns="http://www.w3.org/2000/svg">
<path d="M0 18C0 8.05888 8.05888 0 18 0C27.9411 0 36 8.05888 36 18C36 27.9411 27.9411 36 18 36C8.05888 36 0 27.9411 0 18Z" fill="#4079FF"/>
<path fill-rule="evenodd" clip-rule="evenodd" d="M17.0045 12C19.764 12 22.0091 14.2451 22.0091 17.0046C22.0091 18.1069 21.6465 19.1237 21.0403 19.9515L23.7746 22.6858C24.0752 22.9864 24.0752 23.4739 23.7746 23.7745C23.4739 24.0752 22.9865 24.0752 22.6859 23.7745L19.9516 21.0403C19.1238 21.6465 18.1069 22.0091 17.0046 22.0091C14.2451 22.0091 12 19.764 12 17.0046C12 14.2451 14.2451 12 17.0045 12ZM13.5399 17.0046C13.5399 18.9151 15.094 20.4692 17.0046 20.4692C18.9151 20.4692 20.4693 18.9151 20.4693 17.0046C20.4693 15.094 18.9151 13.5399 17.0046 13.5399C15.094 13.5399 13.5399 15.094 13.5399 17.0046Z" fill="white"/>
</svg>
