<svg width="40" height="40" viewBox="0 0 40 40" fill="none" xmlns="http://www.w3.org/2000/svg">
<rect x="0.5" y="0.5" width="39" height="39" rx="19.5" stroke="#E0E5E8"/>
<g clip-path="url(#clip0_1_266)">
<path d="M27.3765 15.3414C26.7989 14.6549 25.7326 14.3748 23.6962 14.3748H16.3039C14.2209 14.3748 13.1365 14.6729 12.5611 15.4039C12.0001 16.1165 12.0001 17.1666 12.0001 18.6199V21.3899C12.0001 24.2055 12.6657 25.635 16.3039 25.635H23.6962C25.4622 25.635 26.4408 25.3879 27.0739 24.782C27.7231 24.1607 28.0001 23.1462 28.0001 21.3899V18.6199C28.0001 17.0873 27.9567 16.031 27.3765 15.3414ZM22.2722 20.3874L18.9154 22.1417C18.8403 22.181 18.7583 22.2004 18.6763 22.2004C18.5835 22.2004 18.4909 22.1754 18.4089 22.1258C18.2545 22.0322 18.1602 21.8648 18.1602 21.6843V18.1868C18.1602 18.0066 18.2542 17.8393 18.4083 17.7457C18.5625 17.6521 18.7542 17.6457 18.9142 17.7288L22.271 19.4718C22.4418 19.5605 22.549 19.7368 22.5493 19.9292C22.5495 20.1217 22.4427 20.2983 22.2722 20.3874Z" fill="#4079FF"/>
</g>
<defs>
<clipPath id="clip0_1_266">
<rect width="16" height="16" fill="white" transform="translate(12.0001 12.002)"/>
</clipPath>
</defs>
</svg>
